<?xml version="1.0" standalone="no"?><svg xmlns:xlink="http://www.w3.org/1999/xlink" xmlns="http://www.w3.org/2000/svg" viewBox="0 0 1500 750" preserveAspectRatio="xMaxYMax slice"><g transform="scale(1.8115942028985508)"><rect x="0" y="0" width="828" height="414" fill="#ffffff"/><path d="M 252.54 37.26 A 33.12 33.12 0 0 1  285.65999999999997 4.14 L 252.54 37.26 A 33.12 33.12 0 0 0 285.65999999999997 4.14" fill="#edf9f2"/><path d="M 625.14 37.26 A 33.12 33.12 0 0 1  658.26 4.14 L 625.14 37.26 A 33.12 33.12 0 0 0 658.26 4.14" fill="#c6b0fc"/><rect x="86.94" y="45.54" width="33.12" height="33.12" fill="#ffffff"/><rect x="335.34" y="45.54" width="33.12" height="33.12" fill="#ffffff"/><path d="M 542.34 45.54 A 33.12 33.12 0 0 1  575.46 78.66 L 542.34 45.54 A 33.12 33.12 0 0 0 575.46 78.66" fill="#e7f6ed"/><path d="M 749.34 78.66 A 33.12 33.12 0 0 1  782.46 45.54 L 749.34 78.66 A 33.12 33.12 0 0 0 782.46 45.54" fill="#dbcdfd"/><path d="M 500.94 120.06 A 33.12 33.12 0 0 1  534.06 86.94 L 500.94 120.06 A 33.12 33.12 0 0 0 534.06 86.94" fill="#fcfefd"/><path d="M 293.94 128.34 A 33.12 33.12 0 0 1  327.06 161.46 L 293.94 128.34 A 33.12 33.12 0 0 0 327.06 161.46" fill="#eaf8f0"/><path d="M 749.34 128.34 A 33.12 33.12 0 0 1  782.46 161.46 L 749.34 128.34 A 33.12 33.12 0 0 0 782.46 161.46" fill="#fffeff"/><path d="M 335.34 169.74 A 33.12 33.12 0 0 1  368.46 202.86 L 335.34 169.74 A 33.12 33.12 0 0 0 368.46 202.86" fill="#92d8af"/><path d="M 542.34 169.74 A 33.12 33.12 0 0 1  575.46 202.86 L 542.34 169.74 A 33.12 33.12 0 0 0 575.46 202.86" fill="#e4f5eb"/><path d="M 790.74 202.86 A 33.12 33.12 0 0 1  823.86 169.74 L 790.74 202.86 A 33.12 33.12 0 0 0 823.86 169.74" fill="#a2debb"/><path d="M 211.14 244.26 A 33.12 33.12 0 0 1  244.26 211.14 L 211.14 244.26 A 33.12 33.12 0 0 0 244.26 211.14" fill="#ece4fe"/><path d="M 418.14 244.26 A 33.12 33.12 0 0 1  451.26 211.14 L 418.14 244.26 A 33.12 33.12 0 0 0 451.26 211.14" fill="#fbfefc"/><rect x="790.74" y="252.53999999999996" width="33.12" height="33.12" fill="#ffffff"/><path d="M 666.54 293.94 A 33.12 33.12 0 0 1  699.66 327.06 L 666.54 293.94 A 33.12 33.12 0 0 0 699.66 327.06" fill="#f2eefe"/><path d="M 707.94 293.94 A 33.12 33.12 0 0 1  741.0600000000001 327.06 L 707.94 293.94 A 33.12 33.12 0 0 0 741.0600000000001 327.06" fill="#f8fcfa"/><path d="M 4.14 335.34 A 33.12 33.12 0 0 1  37.26 368.46 L 4.14 335.34 A 33.12 33.12 0 0 0 37.26 368.46" fill="#b7e5ca"/><path d="M 293.94 335.34 A 33.12 33.12 0 0 1  327.06 368.46 L 293.94 335.34 A 33.12 33.12 0 0 0 327.06 368.46" fill="#8dd6ab"/></g></svg>