<svg xmlns="http://www.w3.org/2000/svg" xmlns:xlink="http://www.w3.org/1999/xlink" width="1024" zoomAndPan="magnify" viewBox="0 0 768 767.999994" height="1024" preserveAspectRatio="xMidYMid meet" version="1.0"><defs><clipPath id="baa6521e41"><path d="M 221.25 222 L 528.75 222 L 528.75 458 L 221.25 458 Z M 221.25 222 " clip-rule="nonzero"/></clipPath><clipPath id="210ed7f344"><path d="M 292 467 L 355 467 L 355 529.5 L 292 529.5 Z M 292 467 " clip-rule="nonzero"/></clipPath><clipPath id="1076918b3b"><path d="M 415 467 L 478 467 L 478 529.5 L 415 529.5 Z M 415 467 " clip-rule="nonzero"/></clipPath></defs><g clip-path="url(#baa6521e41)"><path fill="#ffffff" d="M 303.167969 416.558594 L 460.371094 416.558594 C 461.613281 416.5625 462.855469 416.511719 464.09375 416.414062 C 465.332031 416.3125 466.566406 416.160156 467.792969 415.953125 C 469.015625 415.75 470.230469 415.492188 471.4375 415.1875 C 472.640625 414.878906 473.832031 414.523438 475.003906 414.113281 C 476.179688 413.707031 477.332031 413.25 478.46875 412.742188 C 479.605469 412.238281 480.71875 411.6875 481.804688 411.085938 C 482.894531 410.488281 483.957031 409.84375 484.992188 409.152344 C 486.023438 408.464844 487.027344 407.734375 488 406.960938 C 488.972656 406.1875 489.914062 405.371094 490.816406 404.519531 C 491.71875 403.664062 492.585938 402.777344 493.414062 401.851562 C 494.246094 400.921875 495.03125 399.964844 495.78125 398.96875 C 496.527344 397.976562 497.230469 396.953125 497.894531 395.902344 C 498.554688 394.851562 499.171875 393.773438 499.742188 392.667969 C 500.3125 391.5625 500.832031 390.4375 501.308594 389.289062 C 501.78125 388.136719 502.207031 386.972656 502.585938 385.789062 C 502.960938 384.601562 503.289062 383.402344 503.5625 382.191406 L 528.1875 275.503906 C 528.277344 275.128906 528.339844 274.75 528.386719 274.371094 C 528.429688 273.988281 528.449219 273.605469 528.453125 273.222656 C 528.453125 272.835938 528.433594 272.453125 528.390625 272.074219 C 528.347656 271.691406 528.285156 271.3125 528.199219 270.9375 C 528.113281 270.5625 528.007812 270.195312 527.882812 269.832031 C 527.757812 269.46875 527.609375 269.113281 527.445312 268.769531 C 527.277344 268.421875 527.09375 268.085938 526.886719 267.761719 C 526.683594 267.4375 526.464844 267.121094 526.222656 266.824219 C 525.984375 266.523438 525.730469 266.234375 525.457031 265.964844 C 525.1875 265.691406 524.902344 265.4375 524.601562 265.195312 C 524.300781 264.957031 523.988281 264.734375 523.664062 264.53125 C 523.335938 264.328125 523.003906 264.140625 522.65625 263.972656 C 522.308594 263.808594 521.957031 263.660156 521.59375 263.535156 C 521.230469 263.40625 520.863281 263.300781 520.488281 263.214844 C 520.113281 263.128906 519.734375 263.066406 519.355469 263.023438 C 518.972656 262.980469 518.589844 262.960938 518.207031 262.960938 L 279.953125 262.960938 L 272.183594 229.894531 C 272.050781 229.335938 271.875 228.792969 271.652344 228.265625 C 271.429688 227.738281 271.164062 227.230469 270.859375 226.746094 C 270.550781 226.265625 270.203125 225.808594 269.820312 225.382812 C 269.4375 224.957031 269.019531 224.566406 268.570312 224.210938 C 268.121094 223.855469 267.644531 223.539062 267.144531 223.261719 C 266.640625 222.988281 266.117188 222.753906 265.578125 222.566406 C 265.035156 222.378906 264.480469 222.238281 263.917969 222.140625 C 263.351562 222.046875 262.78125 222 262.210938 222 L 231.488281 222 C 230.816406 222 230.152344 222.066406 229.492188 222.195312 C 228.832031 222.328125 228.191406 222.523438 227.570312 222.78125 C 226.949219 223.035156 226.359375 223.351562 225.800781 223.726562 C 225.242188 224.097656 224.722656 224.523438 224.25 225 C 223.773438 225.476562 223.347656 225.992188 222.976562 226.550781 C 222.601562 227.109375 222.285156 227.699219 222.03125 228.320312 C 221.773438 228.941406 221.578125 229.582031 221.445312 230.242188 C 221.316406 230.902344 221.25 231.566406 221.25 232.238281 C 221.25 232.914062 221.316406 233.578125 221.445312 234.238281 C 221.578125 234.898438 221.773438 235.539062 222.03125 236.160156 C 222.285156 236.78125 222.601562 237.371094 222.976562 237.929688 C 223.347656 238.488281 223.773438 239.003906 224.25 239.480469 C 224.722656 239.957031 225.242188 240.378906 225.800781 240.753906 C 226.359375 241.128906 226.949219 241.441406 227.570312 241.699219 C 228.191406 241.957031 228.832031 242.152344 229.492188 242.28125 C 230.152344 242.414062 230.816406 242.480469 231.488281 242.480469 L 254.097656 242.480469 L 290.882812 398.699219 C 290.082031 399.050781 289.304688 399.4375 288.539062 399.855469 C 287.773438 400.273438 287.03125 400.722656 286.304688 401.207031 C 285.578125 401.6875 284.875 402.199219 284.191406 402.742188 C 283.507812 403.285156 282.851562 403.855469 282.21875 404.453125 C 281.582031 405.050781 280.976562 405.671875 280.394531 406.324219 C 279.816406 406.972656 279.261719 407.644531 278.738281 408.34375 C 278.214844 409.039062 277.722656 409.757812 277.261719 410.496094 C 276.796875 411.234375 276.367188 411.988281 275.96875 412.765625 C 275.570312 413.539062 275.207031 414.332031 274.875 415.136719 C 274.546875 415.941406 274.25 416.761719 273.988281 417.59375 C 273.726562 418.425781 273.503906 419.265625 273.3125 420.117188 C 273.125 420.964844 272.972656 421.824219 272.855469 422.6875 C 272.738281 423.550781 272.65625 424.417969 272.613281 425.289062 C 272.570312 426.15625 272.566406 427.027344 272.597656 427.898438 C 272.628906 428.769531 272.695312 429.636719 272.800781 430.503906 C 272.90625 431.367188 273.050781 432.226562 273.226562 433.078125 C 273.40625 433.933594 273.621094 434.777344 273.871094 435.609375 C 274.121094 436.445312 274.40625 437.269531 274.722656 438.078125 C 275.042969 438.890625 275.398438 439.683594 275.785156 440.464844 C 276.171875 441.246094 276.59375 442.007812 277.046875 442.753906 C 277.5 443.496094 277.980469 444.21875 278.496094 444.925781 C 279.011719 445.628906 279.554688 446.308594 280.125 446.964844 C 280.699219 447.621094 281.296875 448.253906 281.921875 448.859375 C 282.546875 449.464844 283.199219 450.046875 283.875 450.597656 C 284.546875 451.148438 285.246094 451.667969 285.964844 452.160156 C 286.683594 452.652344 287.421875 453.113281 288.183594 453.539062 C 288.941406 453.96875 289.714844 454.363281 290.507812 454.726562 C 291.300781 455.089844 292.105469 455.417969 292.925781 455.714844 C 293.746094 456.007812 294.578125 456.265625 295.421875 456.488281 C 296.261719 456.714844 297.113281 456.898438 297.972656 457.050781 C 298.828125 457.203125 299.691406 457.316406 300.558594 457.394531 C 301.429688 457.472656 302.296875 457.511719 303.167969 457.515625 L 497.726562 457.515625 C 498.398438 457.515625 499.0625 457.449219 499.722656 457.320312 C 500.382812 457.1875 501.023438 456.996094 501.644531 456.738281 C 502.265625 456.480469 502.855469 456.164062 503.414062 455.789062 C 503.972656 455.417969 504.492188 454.992188 504.964844 454.515625 C 505.441406 454.042969 505.867188 453.523438 506.238281 452.964844 C 506.613281 452.40625 506.929688 451.816406 507.1875 451.195312 C 507.445312 450.574219 507.636719 449.933594 507.769531 449.273438 C 507.898438 448.613281 507.964844 447.949219 507.964844 447.277344 C 507.964844 446.605469 507.898438 445.9375 507.769531 445.277344 C 507.636719 444.621094 507.445312 443.980469 507.1875 443.359375 C 506.929688 442.738281 506.613281 442.148438 506.238281 441.585938 C 505.867188 441.027344 505.441406 440.511719 504.964844 440.035156 C 504.492188 439.558594 503.972656 439.136719 503.414062 438.761719 C 502.855469 438.390625 502.265625 438.074219 501.644531 437.816406 C 501.023438 437.558594 500.382812 437.363281 499.722656 437.234375 C 499.0625 437.101562 498.398438 437.035156 497.726562 437.035156 L 303.167969 437.035156 C 302.496094 437.035156 301.832031 436.972656 301.171875 436.839844 C 300.511719 436.707031 299.871094 436.515625 299.25 436.257812 C 298.628906 436 298.039062 435.683594 297.480469 435.3125 C 296.921875 434.9375 296.402344 434.511719 295.929688 434.039062 C 295.453125 433.5625 295.027344 433.042969 294.65625 432.484375 C 294.28125 431.925781 293.964844 431.335938 293.707031 430.714844 C 293.449219 430.09375 293.257812 429.453125 293.125 428.792969 C 292.996094 428.136719 292.929688 427.46875 292.929688 426.796875 C 292.929688 426.125 292.996094 425.457031 293.125 424.800781 C 293.257812 424.140625 293.449219 423.5 293.707031 422.878906 C 293.964844 422.257812 294.28125 421.667969 294.65625 421.109375 C 295.027344 420.550781 295.453125 420.03125 295.929688 419.554688 C 296.402344 419.082031 296.921875 418.65625 297.480469 418.28125 C 298.039062 417.910156 298.628906 417.59375 299.25 417.335938 C 299.871094 417.078125 300.511719 416.886719 301.171875 416.753906 C 301.832031 416.621094 302.496094 416.558594 303.167969 416.558594 Z M 505.332031 283.4375 L 483.605469 377.585938 C 483.308594 378.890625 482.90625 380.164062 482.394531 381.402344 C 481.882812 382.640625 481.273438 383.828125 480.558594 384.964844 C 479.847656 386.097656 479.042969 387.164062 478.152344 388.164062 C 477.257812 389.164062 476.289062 390.082031 475.238281 390.914062 C 474.191406 391.75 473.078125 392.488281 471.90625 393.136719 C 470.730469 393.78125 469.511719 394.324219 468.246094 394.765625 C 466.980469 395.203125 465.683594 395.535156 464.363281 395.753906 C 463.042969 395.976562 461.710938 396.082031 460.371094 396.078125 L 311.277344 396.078125 L 284.738281 283.4375 Z M 505.332031 283.4375 " fill-opacity="1" fill-rule="nonzero"/></g><g clip-path="url(#210ed7f344)"><path fill="#ffffff" d="M 323.648438 467.757812 C 322.640625 467.757812 321.636719 467.804688 320.636719 467.902344 C 319.636719 468.003906 318.640625 468.148438 317.65625 468.347656 C 316.667969 468.542969 315.695312 468.785156 314.730469 469.078125 C 313.769531 469.371094 312.820312 469.710938 311.890625 470.09375 C 310.964844 470.480469 310.054688 470.910156 309.167969 471.382812 C 308.28125 471.859375 307.417969 472.375 306.582031 472.933594 C 305.746094 473.492188 304.9375 474.089844 304.160156 474.730469 C 303.382812 475.367188 302.636719 476.042969 301.925781 476.753906 C 301.214844 477.464844 300.539062 478.210938 299.902344 478.988281 C 299.261719 479.765625 298.664062 480.574219 298.105469 481.410156 C 297.546875 482.246094 297.03125 483.105469 296.554688 483.996094 C 296.082031 484.882812 295.652344 485.789062 295.265625 486.71875 C 294.882812 487.648438 294.542969 488.59375 294.25 489.558594 C 293.960938 490.519531 293.714844 491.496094 293.519531 492.484375 C 293.324219 493.46875 293.175781 494.464844 293.078125 495.464844 C 292.976562 496.464844 292.929688 497.46875 292.929688 498.476562 C 292.929688 499.480469 292.976562 500.484375 293.078125 501.488281 C 293.175781 502.488281 293.324219 503.480469 293.519531 504.46875 C 293.714844 505.457031 293.960938 506.429688 294.25 507.394531 C 294.542969 508.355469 294.882812 509.300781 295.265625 510.230469 C 295.652344 511.160156 296.082031 512.070312 296.554688 512.957031 C 297.03125 513.84375 297.546875 514.707031 298.105469 515.542969 C 298.664062 516.378906 299.261719 517.1875 299.902344 517.964844 C 300.539062 518.742188 301.214844 519.488281 301.925781 520.199219 C 302.636719 520.910156 303.382812 521.585938 304.160156 522.222656 C 304.9375 522.859375 305.746094 523.460938 306.582031 524.019531 C 307.417969 524.578125 308.28125 525.09375 309.167969 525.566406 C 310.054688 526.042969 310.964844 526.472656 311.890625 526.855469 C 312.820312 527.242188 313.769531 527.582031 314.730469 527.871094 C 315.695312 528.164062 316.667969 528.410156 317.65625 528.605469 C 318.640625 528.800781 319.636719 528.949219 320.636719 529.046875 C 321.636719 529.144531 322.640625 529.195312 323.648438 529.195312 C 324.65625 529.195312 325.660156 529.144531 326.660156 529.046875 C 327.660156 528.949219 328.65625 528.800781 329.640625 528.605469 C 330.628906 528.410156 331.601562 528.164062 332.566406 527.871094 C 333.527344 527.582031 334.476562 527.242188 335.402344 526.855469 C 336.332031 526.472656 337.242188 526.042969 338.128906 525.566406 C 339.015625 525.09375 339.878906 524.578125 340.714844 524.019531 C 341.550781 523.460938 342.359375 522.859375 343.136719 522.222656 C 343.914062 521.585938 344.660156 520.910156 345.371094 520.199219 C 346.082031 519.488281 346.757812 518.742188 347.394531 517.964844 C 348.03125 517.1875 348.632812 516.378906 349.191406 515.542969 C 349.75 514.707031 350.265625 513.84375 350.742188 512.957031 C 351.214844 512.070312 351.644531 511.160156 352.03125 510.230469 C 352.414062 509.300781 352.753906 508.355469 353.046875 507.394531 C 353.335938 506.429688 353.582031 505.457031 353.777344 504.46875 C 353.972656 503.480469 354.121094 502.488281 354.21875 501.488281 C 354.320312 500.484375 354.367188 499.480469 354.367188 498.476562 C 354.367188 497.46875 354.320312 496.464844 354.21875 495.464844 C 354.121094 494.464844 353.972656 493.46875 353.777344 492.484375 C 353.582031 491.496094 353.335938 490.519531 353.046875 489.558594 C 352.753906 488.59375 352.414062 487.648438 352.03125 486.71875 C 351.644531 485.789062 351.214844 484.882812 350.742188 483.996094 C 350.265625 483.105469 349.75 482.246094 349.191406 481.410156 C 348.632812 480.574219 348.035156 479.765625 347.394531 478.988281 C 346.757812 478.210938 346.082031 477.464844 345.371094 476.753906 C 344.660156 476.042969 343.914062 475.367188 343.136719 474.730469 C 342.359375 474.089844 341.550781 473.492188 340.714844 472.933594 C 339.878906 472.375 339.015625 471.859375 338.128906 471.382812 C 337.242188 470.910156 336.332031 470.480469 335.402344 470.09375 C 334.476562 469.710938 333.527344 469.371094 332.566406 469.078125 C 331.601562 468.785156 330.628906 468.542969 329.640625 468.347656 C 328.65625 468.148438 327.660156 468.003906 326.660156 467.902344 C 325.660156 467.804688 324.65625 467.757812 323.648438 467.757812 Z M 323.648438 508.714844 C 322.976562 508.714844 322.308594 508.648438 321.652344 508.519531 C 320.992188 508.386719 320.351562 508.195312 319.730469 507.9375 C 319.109375 507.679688 318.519531 507.363281 317.960938 506.988281 C 317.402344 506.617188 316.882812 506.191406 316.40625 505.714844 C 315.933594 505.242188 315.507812 504.722656 315.132812 504.164062 C 314.761719 503.605469 314.445312 503.015625 314.1875 502.394531 C 313.929688 501.773438 313.738281 501.132812 313.605469 500.472656 C 313.472656 499.8125 313.410156 499.148438 313.410156 498.476562 C 313.410156 497.804688 313.472656 497.136719 313.605469 496.476562 C 313.738281 495.820312 313.929688 495.179688 314.1875 494.558594 C 314.445312 493.9375 314.761719 493.347656 315.132812 492.785156 C 315.507812 492.226562 315.933594 491.710938 316.40625 491.234375 C 316.882812 490.757812 317.402344 490.335938 317.960938 489.960938 C 318.519531 489.589844 319.109375 489.273438 319.730469 489.015625 C 320.351562 488.757812 320.992188 488.5625 321.652344 488.433594 C 322.308594 488.300781 322.976562 488.234375 323.648438 488.234375 C 324.320312 488.234375 324.988281 488.300781 325.644531 488.433594 C 326.304688 488.5625 326.945312 488.757812 327.566406 489.015625 C 328.1875 489.273438 328.777344 489.589844 329.335938 489.960938 C 329.894531 490.335938 330.414062 490.757812 330.890625 491.234375 C 331.363281 491.710938 331.789062 492.226562 332.164062 492.785156 C 332.535156 493.347656 332.851562 493.9375 333.109375 494.558594 C 333.367188 495.179688 333.558594 495.820312 333.691406 496.476562 C 333.824219 497.136719 333.886719 497.804688 333.886719 498.476562 C 333.886719 499.148438 333.824219 499.8125 333.691406 500.472656 C 333.558594 501.132812 333.367188 501.773438 333.109375 502.394531 C 332.851562 503.015625 332.535156 503.605469 332.164062 504.164062 C 331.789062 504.722656 331.363281 505.242188 330.890625 505.714844 C 330.414062 506.191406 329.894531 506.617188 329.335938 506.988281 C 328.777344 507.363281 328.1875 507.679688 327.566406 507.9375 C 326.945312 508.195312 326.304688 508.386719 325.644531 508.519531 C 324.988281 508.648438 324.320312 508.714844 323.648438 508.714844 Z M 323.648438 508.714844 " fill-opacity="1" fill-rule="nonzero"/></g><g clip-path="url(#1076918b3b)"><path fill="#ffffff" d="M 446.527344 467.757812 C 445.519531 467.757812 444.515625 467.804688 443.515625 467.902344 C 442.515625 468.003906 441.519531 468.148438 440.535156 468.347656 C 439.546875 468.542969 438.570312 468.785156 437.609375 469.078125 C 436.644531 469.371094 435.699219 469.710938 434.769531 470.09375 C 433.839844 470.480469 432.933594 470.910156 432.046875 471.382812 C 431.15625 471.859375 430.296875 472.375 429.460938 472.933594 C 428.625 473.492188 427.816406 474.089844 427.039062 474.730469 C 426.261719 475.367188 425.515625 476.042969 424.804688 476.753906 C 424.09375 477.464844 423.417969 478.210938 422.78125 478.988281 C 422.140625 479.765625 421.542969 480.574219 420.984375 481.410156 C 420.425781 482.246094 419.910156 483.105469 419.433594 483.996094 C 418.960938 484.882812 418.53125 485.789062 418.144531 486.71875 C 417.761719 487.648438 417.421875 488.59375 417.128906 489.558594 C 416.835938 490.519531 416.59375 491.496094 416.398438 492.484375 C 416.199219 493.46875 416.054688 494.464844 415.953125 495.464844 C 415.855469 496.464844 415.808594 497.46875 415.808594 498.476562 C 415.808594 499.480469 415.855469 500.484375 415.953125 501.488281 C 416.054688 502.488281 416.199219 503.480469 416.398438 504.46875 C 416.59375 505.457031 416.835938 506.429688 417.128906 507.394531 C 417.421875 508.355469 417.761719 509.300781 418.144531 510.230469 C 418.53125 511.160156 418.960938 512.070312 419.433594 512.957031 C 419.910156 513.84375 420.425781 514.707031 420.984375 515.542969 C 421.542969 516.378906 422.140625 517.1875 422.78125 517.964844 C 423.417969 518.742188 424.09375 519.488281 424.804688 520.199219 C 425.515625 520.910156 426.261719 521.585938 427.039062 522.222656 C 427.816406 522.859375 428.625 523.460938 429.460938 524.019531 C 430.296875 524.578125 431.15625 525.09375 432.046875 525.566406 C 432.933594 526.042969 433.839844 526.472656 434.769531 526.855469 C 435.699219 527.242188 436.644531 527.582031 437.609375 527.871094 C 438.570312 528.164062 439.546875 528.410156 440.535156 528.605469 C 441.519531 528.800781 442.515625 528.949219 443.515625 529.046875 C 444.515625 529.144531 445.519531 529.195312 446.527344 529.195312 C 447.53125 529.195312 448.535156 529.144531 449.539062 529.046875 C 450.539062 528.949219 451.53125 528.800781 452.519531 528.605469 C 453.507812 528.410156 454.480469 528.164062 455.445312 527.871094 C 456.40625 527.582031 457.351562 527.242188 458.28125 526.855469 C 459.210938 526.472656 460.121094 526.042969 461.007812 525.566406 C 461.894531 525.09375 462.757812 524.578125 463.59375 524.019531 C 464.429688 523.460938 465.238281 522.859375 466.015625 522.222656 C 466.792969 521.585938 467.535156 520.910156 468.25 520.199219 C 468.960938 519.488281 469.636719 518.742188 470.273438 517.964844 C 470.910156 517.1875 471.511719 516.378906 472.070312 515.542969 C 472.628906 514.707031 473.144531 513.84375 473.617188 512.957031 C 474.09375 512.070312 474.523438 511.160156 474.90625 510.230469 C 475.292969 509.300781 475.632812 508.355469 475.921875 507.394531 C 476.214844 506.429688 476.460938 505.457031 476.65625 504.46875 C 476.851562 503.480469 477 502.488281 477.097656 501.488281 C 477.195312 500.484375 477.246094 499.480469 477.246094 498.476562 C 477.246094 497.46875 477.195312 496.464844 477.097656 495.464844 C 477 494.464844 476.851562 493.46875 476.65625 492.484375 C 476.460938 491.496094 476.214844 490.519531 475.921875 489.558594 C 475.632812 488.59375 475.292969 487.648438 474.90625 486.71875 C 474.523438 485.789062 474.09375 484.882812 473.617188 483.996094 C 473.144531 483.105469 472.628906 482.246094 472.070312 481.410156 C 471.511719 480.574219 470.910156 479.765625 470.273438 478.988281 C 469.636719 478.210938 468.960938 477.464844 468.25 476.753906 C 467.535156 476.042969 466.792969 475.367188 466.015625 474.730469 C 465.238281 474.089844 464.429688 473.492188 463.59375 472.933594 C 462.757812 472.375 461.894531 471.859375 461.007812 471.382812 C 460.121094 470.910156 459.210938 470.480469 458.28125 470.09375 C 457.351562 469.710938 456.40625 469.371094 455.445312 469.078125 C 454.480469 468.785156 453.507812 468.542969 452.519531 468.347656 C 451.53125 468.148438 450.539062 468.003906 449.539062 467.902344 C 448.535156 467.804688 447.53125 467.757812 446.527344 467.757812 Z M 446.527344 508.714844 C 445.855469 508.714844 445.1875 508.648438 444.527344 508.519531 C 443.871094 508.386719 443.230469 508.195312 442.609375 507.9375 C 441.988281 507.679688 441.398438 507.363281 440.835938 506.988281 C 440.277344 506.617188 439.761719 506.191406 439.285156 505.714844 C 438.808594 505.242188 438.386719 504.722656 438.011719 504.164062 C 437.640625 503.605469 437.324219 503.015625 437.066406 502.394531 C 436.808594 501.773438 436.613281 501.132812 436.484375 500.472656 C 436.351562 499.8125 436.285156 499.148438 436.285156 498.476562 C 436.285156 497.804688 436.351562 497.136719 436.484375 496.476562 C 436.613281 495.820312 436.808594 495.179688 437.066406 494.558594 C 437.324219 493.9375 437.640625 493.347656 438.011719 492.785156 C 438.386719 492.226562 438.808594 491.710938 439.285156 491.234375 C 439.761719 490.757812 440.277344 490.335938 440.835938 489.960938 C 441.398438 489.589844 441.988281 489.273438 442.609375 489.015625 C 443.230469 488.757812 443.871094 488.5625 444.527344 488.433594 C 445.1875 488.300781 445.855469 488.234375 446.527344 488.234375 C 447.199219 488.234375 447.863281 488.300781 448.523438 488.433594 C 449.183594 488.5625 449.824219 488.757812 450.445312 489.015625 C 451.066406 489.273438 451.65625 489.589844 452.214844 489.960938 C 452.773438 490.335938 453.292969 490.757812 453.765625 491.234375 C 454.242188 491.710938 454.667969 492.226562 455.039062 492.785156 C 455.414062 493.347656 455.730469 493.9375 455.988281 494.558594 C 456.246094 495.179688 456.4375 495.820312 456.570312 496.476562 C 456.699219 497.136719 456.765625 497.804688 456.765625 498.476562 C 456.765625 499.148438 456.699219 499.8125 456.570312 500.472656 C 456.4375 501.132812 456.246094 501.773438 455.988281 502.394531 C 455.730469 503.015625 455.414062 503.605469 455.039062 504.164062 C 454.667969 504.722656 454.242188 505.242188 453.765625 505.714844 C 453.292969 506.191406 452.773438 506.617188 452.214844 506.988281 C 451.65625 507.363281 451.066406 507.679688 450.445312 507.9375 C 449.824219 508.195312 449.183594 508.386719 448.523438 508.519531 C 447.863281 508.648438 447.199219 508.714844 446.527344 508.714844 Z M 446.527344 508.714844 " fill-opacity="1" fill-rule="nonzero"/></g></svg>